<?xml version="1.0" encoding="UTF-8" standalone="no"?>
<!DOCTYPE svg PUBLIC "-//W3C//DTD SVG 1.1//EN"
 "http://www.w3.org/Graphics/SVG/1.1/DTD/svg11.dtd">
<!-- Generated by graphviz version 2.38.0 (20140413.2041)
 -->
<!-- Title: %3 Pages: 1 -->
<svg width="685pt" height="479pt"
 viewBox="0.00 0.00 684.59 479.00" xmlns="http://www.w3.org/2000/svg" xmlns:xlink="http://www.w3.org/1999/xlink">
<g id="graph0" class="graph" transform="scale(1 1) rotate(0) translate(4 475)">
<title>%3</title>
<polygon fill="#333333" stroke="none" points="-4,4 -4,-475 680.587,-475 680.587,4 -4,4"/>
<text text-anchor="middle" x="338.293" y="-9.2" font-family="Times,serif" font-size="16.00" fill="white">Network Map</text>
<!-- R4 -->
<g id="node1" class="node"><title>R4</title>
<polygon fill="#006699" stroke="#006699" points="87.0865,-223 10.0865,-223 10.0865,-150 87.0865,-150 87.0865,-223"/>
<text text-anchor="middle" x="48.5865" y="-182.8" font-family="Helvetica,sans-Serif" font-size="14.00" fill="white">R4</text>
</g>
<!-- R3 -->
<g id="node2" class="node"><title>R3</title>
<polygon fill="#006699" stroke="#006699" points="271.087,-99 194.087,-99 194.087,-26 271.087,-26 271.087,-99"/>
<text text-anchor="middle" x="232.587" y="-58.8" font-family="Helvetica,sans-Serif" font-size="14.00" fill="white">R3</text>
</g>
<!-- R3&#45;&#45;R4 -->
<g id="edge9" class="edge"><title>R3&#45;&#45;R4</title>
<path fill="none" stroke="green" stroke-dasharray="5,2" d="M193.812,-65.2173C155.5,-69.0507 97.9299,-80.9186 64.5865,-117 56.3809,-125.879 52.129,-138.135 50,-149.829"/>
<text text-anchor="middle" x="114.587" y="-120.8" font-family="Courier,monospace" font-size="14.00" fill="white"> &#160;&#160;&#160;&#160;&#160;&#160;&#160;&#160;&#160;&#160;&#160;</text>
<text text-anchor="middle" x="25" y="-138.629" font-family="Courier,monospace" font-size="14.00" fill="white">Eth0/0</text>
<text text-anchor="middle" x="168.812" y="-54.0173" font-family="Courier,monospace" font-size="14.00" fill="white">Eth0/1</text>
</g>
<!-- R5 -->
<g id="node5" class="node"><title>R5</title>
<polygon fill="#006699" stroke="#006699" points="210.087,-223 133.087,-223 133.087,-150 210.087,-150 210.087,-223"/>
<text text-anchor="middle" x="171.587" y="-182.8" font-family="Helvetica,sans-Serif" font-size="14.00" fill="white">R5</text>
</g>
<!-- R3&#45;&#45;R5 -->
<g id="edge10" class="edge"><title>R3&#45;&#45;R5</title>
<path fill="none" stroke="green" stroke-dasharray="5,2" d="M194.014,-89.3406C185.4,-97.1362 177.401,-106.464 172.587,-117 167.99,-127.061 166.601,-138.852 166.695,-149.788"/>
<text text-anchor="middle" x="222.587" y="-120.8" font-family="Courier,monospace" font-size="14.00" fill="white"> &#160;&#160;&#160;&#160;&#160;&#160;&#160;&#160;&#160;&#160;&#160;</text>
<text text-anchor="middle" x="141.695" y="-138.588" font-family="Courier,monospace" font-size="14.00" fill="white">Eth0/0</text>
<text text-anchor="middle" x="169.014" y="-78.1406" font-family="Courier,monospace" font-size="14.00" fill="white">Eth0/2</text>
</g>
<!-- SW1 -->
<g id="node6" class="node"><title>SW1</title>
<polygon fill="#006699" stroke="#006699" points="401.587,-223 309.587,-223 309.587,-150 401.587,-150 401.587,-223"/>
<text text-anchor="middle" x="355.587" y="-182.8" font-family="Helvetica,sans-Serif" font-size="14.00" fill="white">SW1</text>
</g>
<!-- R3&#45;&#45;SW1 -->
<g id="edge8" class="edge"><title>R3&#45;&#45;SW1</title>
<path fill="none" stroke="green" stroke-dasharray="5,2" d="M261.54,-99.3401C270.788,-110.168 281.301,-121.865 291.587,-132 297.673,-137.997 304.353,-144.072 311.03,-149.869"/>
<text text-anchor="middle" x="341.587" y="-120.8" font-family="Courier,monospace" font-size="14.00" fill="white"> &#160;&#160;&#160;&#160;&#160;&#160;&#160;&#160;&#160;&#160;&#160;</text>
<text text-anchor="middle" x="286.03" y="-138.669" font-family="Courier,monospace" font-size="14.00" fill="white">Eth0/3</text>
<text text-anchor="middle" x="236.54" y="-103.14" font-family="Courier,monospace" font-size="14.00" fill="white">Eth0/0</text>
</g>
<!-- R1 -->
<g id="node3" class="node"><title>R1</title>
<polygon fill="#006699" stroke="#006699" points="210.087,-347 133.087,-347 133.087,-274 210.087,-274 210.087,-347"/>
<text text-anchor="middle" x="171.587" y="-306.8" font-family="Helvetica,sans-Serif" font-size="14.00" fill="white">R1</text>
</g>
<!-- R1&#45;&#45;SW1 -->
<g id="edge5" class="edge"><title>R1&#45;&#45;SW1</title>
<path fill="none" stroke="green" stroke-dasharray="5,2" d="M207.558,-273.962C219.982,-262.673 234.365,-250.633 248.587,-241 267.502,-228.188 289.917,-216.509 309.333,-207.354"/>
<text text-anchor="middle" x="298.587" y="-244.8" font-family="Courier,monospace" font-size="14.00" fill="white"> &#160;&#160;&#160;&#160;&#160;&#160;&#160;&#160;&#160;&#160;&#160;</text>
<text text-anchor="middle" x="284.333" y="-196.154" font-family="Courier,monospace" font-size="14.00" fill="white">Eth0/1</text>
<text text-anchor="middle" x="182.558" y="-262.762" font-family="Courier,monospace" font-size="14.00" fill="white">Eth0/0</text>
</g>
<!-- R2 -->
<g id="node4" class="node"><title>R2</title>
<polygon fill="#006699" stroke="#006699" points="455.087,-347 378.087,-347 378.087,-274 455.087,-274 455.087,-347"/>
<text text-anchor="middle" x="416.587" y="-306.8" font-family="Helvetica,sans-Serif" font-size="14.00" fill="white">R2</text>
</g>
<!-- R2&#45;&#45;SW1 -->
<g id="edge6" class="edge"><title>R2&#45;&#45;SW1</title>
<path fill="none" stroke="green" stroke-dasharray="5,2" d="M453.294,-273.841C459.932,-263.238 462.978,-251.619 456.587,-241 444.563,-221.024 422.299,-208.115 401.728,-199.994"/>
<text text-anchor="middle" x="509.587" y="-244.8" font-family="Courier,monospace" font-size="14.00" fill="white"> &#160;&#160;&#160;&#160;&#160;&#160;&#160;&#160;&#160;&#160;&#160;</text>
<text text-anchor="middle" x="426.728" y="-203.794" font-family="Courier,monospace" font-size="14.00" fill="white">Eth0/2</text>
<text text-anchor="middle" x="428.294" y="-262.641" font-family="Courier,monospace" font-size="14.00" fill="white">Eth0/0</text>
</g>
<!-- SW2 -->
<g id="node8" class="node"><title>SW2</title>
<polygon fill="#006699" stroke="#006699" points="462.587,-471 370.587,-471 370.587,-398 462.587,-398 462.587,-471"/>
<text text-anchor="middle" x="416.587" y="-430.8" font-family="Helvetica,sans-Serif" font-size="14.00" fill="white">SW2</text>
</g>
<!-- R2&#45;&#45;SW2 -->
<g id="edge7" class="edge"><title>R2&#45;&#45;SW2</title>
<path fill="none" stroke="green" stroke-dasharray="5,2" d="M416.587,-347.115C416.587,-363.01 416.587,-381.704 416.587,-397.629"/>
<text text-anchor="middle" x="466.587" y="-368.8" font-family="Courier,monospace" font-size="14.00" fill="white"> &#160;&#160;&#160;&#160;&#160;&#160;&#160;&#160;&#160;&#160;&#160;</text>
<text text-anchor="middle" x="387.587" y="-386.429" font-family="Courier,monospace" font-size="14.00" fill="white">Eth0/11</text>
<text text-anchor="middle" x="391.587" y="-350.915" font-family="Courier,monospace" font-size="14.00" fill="white">Eth0/1</text>
</g>
<!-- SW1&#45;&#45;R3 -->
<g id="edge3" class="edge"><title>SW1&#45;&#45;R3</title>
<path fill="none" stroke="green" stroke-dasharray="5,2" d="M392.952,-149.815C399.942,-138.994 403.018,-127.261 395.587,-117 367.372,-78.0433 309.885,-66.9469 271.288,-64.063"/>
<text text-anchor="middle" x="449.587" y="-120.8" font-family="Courier,monospace" font-size="14.00" fill="white"> &#160;&#160;&#160;&#160;&#160;&#160;&#160;&#160;&#160;&#160;&#160;</text>
<text text-anchor="middle" x="296.288" y="-52.863" font-family="Courier,monospace" font-size="14.00" fill="white">Eth0/0</text>
<text text-anchor="middle" x="367.952" y="-138.615" font-family="Courier,monospace" font-size="14.00" fill="white">Eth0/3</text>
</g>
<!-- SW1&#45;&#45;R1 -->
<g id="edge1" class="edge"><title>SW1&#45;&#45;R1</title>
<path fill="none" stroke="green" stroke-dasharray="5,2" d="M309.535,-200.518C283.065,-207.728 249.109,-216.515 218.587,-223 194.787,-228.057 126.313,-222.435 110.587,-241 96.9997,-257.039 113.642,-274.75 132.953,-288.144"/>
<text text-anchor="middle" x="160.587" y="-244.8" font-family="Courier,monospace" font-size="14.00" fill="white"> &#160;&#160;&#160;&#160;&#160;&#160;&#160;&#160;&#160;&#160;&#160;</text>
<text text-anchor="middle" x="107.953" y="-276.944" font-family="Courier,monospace" font-size="14.00" fill="white">Eth0/0</text>
<text text-anchor="middle" x="284.535" y="-204.318" font-family="Courier,monospace" font-size="14.00" fill="white">Eth0/1</text>
</g>
<!-- SW1&#45;&#45;R2 -->
<g id="edge2" class="edge"><title>SW1&#45;&#45;R2</title>
<path fill="none" stroke="green" stroke-dasharray="5,2" d="M350.695,-223.212C350.601,-234.148 351.99,-245.939 356.587,-256 361.401,-266.536 369.4,-275.864 378.014,-283.659"/>
<text text-anchor="middle" x="406.587" y="-244.8" font-family="Courier,monospace" font-size="14.00" fill="white"> &#160;&#160;&#160;&#160;&#160;&#160;&#160;&#160;&#160;&#160;&#160;</text>
<text text-anchor="middle" x="353.014" y="-272.459" font-family="Courier,monospace" font-size="14.00" fill="white">Eth0/0</text>
<text text-anchor="middle" x="325.695" y="-227.012" font-family="Courier,monospace" font-size="14.00" fill="white">Eth0/2</text>
</g>
<!-- R6 -->
<g id="node7" class="node"><title>R6</title>
<polygon fill="#006699" stroke="#006699" points="640.087,-347 563.087,-347 563.087,-274 640.087,-274 640.087,-347"/>
<text text-anchor="middle" x="601.587" y="-306.8" font-family="Helvetica,sans-Serif" font-size="14.00" fill="white">R6</text>
</g>
<!-- SW1&#45;&#45;R6 -->
<g id="edge4" class="edge"><title>SW1&#45;&#45;R6</title>
<path fill="none" stroke="green" stroke-dasharray="5,2" d="M401.913,-189.071C447.369,-192.812 516.533,-204.629 563.587,-241 574.454,-249.4 582.661,-261.835 588.616,-273.812"/>
<text text-anchor="middle" x="626.587" y="-244.8" font-family="Courier,monospace" font-size="14.00" fill="white"> &#160;&#160;&#160;&#160;&#160;&#160;&#160;&#160;&#160;&#160;&#160;</text>
<text text-anchor="middle" x="563.616" y="-262.612" font-family="Courier,monospace" font-size="14.00" fill="white">Eth0/1</text>
<text text-anchor="middle" x="426.913" y="-177.871" font-family="Courier,monospace" font-size="14.00" fill="white">Eth0/5</text>
</g>
</g>
</svg>
